<?xml version="1.0" encoding="UTF-8"?>
<svg id="Layer_2" data-name="Layer 2" xmlns="http://www.w3.org/2000/svg" viewBox="0 0 91.87 73.01">
  <defs>
    <style>
      .cls-1 {
        fill: #5b61fe;
      }

      .cls-1, .cls-2, .cls-3 {
        stroke-width: 0px;
      }

      .cls-2 {
        fill: #fe5b5b;
      }

      .cls-3 {
        fill: #feec49;
      }
    </style>
  </defs>
  <g id="Layer_1-2" data-name="Layer 1">
    <g>
      <path class="cls-3" d="m45.94,16.44c-14.94,0-29.87,0-44.81.02-.88,0-1.14-.19-1.13-1.11C.05,10.55.04,5.75,0,.94,0,.21.19,0,.94,0c29.99.02,59.99.02,89.98,0,.73,0,.95.18.95.93-.03,4.83-.04,9.66,0,14.49,0,.81-.2,1.03-1.02,1.03-14.97-.03-29.93-.02-44.9-.02Z"/>
      <path class="cls-1" d="m36.52,44.72c-11.83,0-23.65,0-35.48.02-.78,0-1.05-.16-1.04-1.01.04-4.86.03-9.72,0-14.58,0-.69.17-.9.88-.9,23.74.02,47.48.02,71.23,0,.68,0,.9.17.9.88-.03,4.89-.03,9.78,0,14.67,0,.74-.19.94-.93.93-11.86-.02-23.71-.02-35.57-.02Z"/>
      <path class="cls-2" d="m28.23,72.99c-9.07,0-18.14-.01-27.21.02-.82,0-1.02-.21-1.02-1.02.04-4.89.03-9.78,0-14.67,0-.66.17-.85.84-.85,18.26.02,36.52.02,54.78,0,.74,0,.96.22.95.96-.03,4.89-.03,9.78,0,14.67,0,.78-.26.91-.96.91-9.13-.02-18.26-.01-27.39-.01Z"/>
    </g>
  </g>
</svg>