<?xml version="1.0" encoding="UTF-8"?>
<svg id="Layer_2" data-name="Layer 2" xmlns="http://www.w3.org/2000/svg" viewBox="0 0 312 516.18">
  <defs>
    <style>
      .cls-1 {
        fill: #302624;
      }

      .cls-1, .cls-2, .cls-3, .cls-4, .cls-5, .cls-6, .cls-7, .cls-8, .cls-9, .cls-10, .cls-11, .cls-12, .cls-13, .cls-14, .cls-15, .cls-16, .cls-17, .cls-18, .cls-19, .cls-20, .cls-21, .cls-22, .cls-23, .cls-24, .cls-25, .cls-26, .cls-27, .cls-28, .cls-29, .cls-30, .cls-31, .cls-32, .cls-33, .cls-34, .cls-35, .cls-36, .cls-37, .cls-38, .cls-39, .cls-40, .cls-41, .cls-42, .cls-43, .cls-44, .cls-45, .cls-46, .cls-47, .cls-48, .cls-49, .cls-50, .cls-51, .cls-52, .cls-53, .cls-54, .cls-55, .cls-56, .cls-57, .cls-58, .cls-59, .cls-60, .cls-61, .cls-62, .cls-63, .cls-64, .cls-65, .cls-66, .cls-67, .cls-68, .cls-69, .cls-70, .cls-71, .cls-72, .cls-73, .cls-74, .cls-75, .cls-76, .cls-77, .cls-78, .cls-79, .cls-80, .cls-81, .cls-82, .cls-83, .cls-84, .cls-85, .cls-86, .cls-87, .cls-88, .cls-89, .cls-90, .cls-91, .cls-92, .cls-93, .cls-94, .cls-95, .cls-96, .cls-97, .cls-98, .cls-99, .cls-100, .cls-101, .cls-102, .cls-103, .cls-104, .cls-105, .cls-106, .cls-107, .cls-108, .cls-109, .cls-110, .cls-111, .cls-112, .cls-113, .cls-114, .cls-115, .cls-116, .cls-117, .cls-118, .cls-119, .cls-120, .cls-121, .cls-122, .cls-123, .cls-124, .cls-125, .cls-126, .cls-127, .cls-128, .cls-129, .cls-130, .cls-131, .cls-132, .cls-133, .cls-134, .cls-135, .cls-136, .cls-137, .cls-138, .cls-139, .cls-140, .cls-141, .cls-142, .cls-143, .cls-144, .cls-145, .cls-146, .cls-147, .cls-148, .cls-149, .cls-150, .cls-151, .cls-152, .cls-153, .cls-154, .cls-155, .cls-156, .cls-157, .cls-158, .cls-159, .cls-160, .cls-161, .cls-162, .cls-163, .cls-164, .cls-165, .cls-166, .cls-167, .cls-168, .cls-169, .cls-170, .cls-171, .cls-172, .cls-173, .cls-174, .cls-175, .cls-176, .cls-177, .cls-178, .cls-179, .cls-180, .cls-181, .cls-182, .cls-183, .cls-184, .cls-185, .cls-186, .cls-187, .cls-188, .cls-189, .cls-190, .cls-191, .cls-192, .cls-193, .cls-194, .cls-195, .cls-196, .cls-197, .cls-198, .cls-199, .cls-200, .cls-201, .cls-202, .cls-203, .cls-204, .cls-205, .cls-206, .cls-207, .cls-208, .cls-209, .cls-210, .cls-211, .cls-212, .cls-213, .cls-214, .cls-215, .cls-216, .cls-217, .cls-218, .cls-219, .cls-220, .cls-221, .cls-222, .cls-223, .cls-224, .cls-225, .cls-226, .cls-227, .cls-228, .cls-229 {
        stroke-width: 0px;
      }

      .cls-2 {
        fill: #584c48;
      }

      .cls-3 {
        fill: #412d24;
      }

      .cls-4 {
        fill: #43322a;
      }

      .cls-5 {
        fill: #140f11;
      }

      .cls-6 {
        fill: #c2aa94;
      }

      .cls-7 {
        fill: #25130d;
      }

      .cls-8 {
        fill: #786657;
      }

      .cls-9 {
        fill: #a6958d;
      }

      .cls-10 {
        fill: #1a1513;
      }

      .cls-11 {
        fill: #87695e;
      }

      .cls-12 {
        fill: #2a2124;
      }

      .cls-13 {
        fill: #2e1a14;
      }

      .cls-14 {
        fill: #321e14;
      }

      .cls-15 {
        fill: #917e72;
      }

      .cls-16 {
        fill: #5b3c28;
      }

      .cls-17 {
        fill: #48352b;
      }

      .cls-18 {
        fill: #3b291f;
      }

      .cls-19 {
        fill: #352a26;
      }

      .cls-20 {
        fill: #865f41;
      }

      .cls-21 {
        fill: #7a3c2c;
      }

      .cls-22 {
        fill: #422f25;
      }

      .cls-23 {
        fill: #7e6c65;
      }

      .cls-24 {
        fill: #b4a7a1;
      }

      .cls-25 {
        fill: #41201b;
      }

      .cls-26 {
        fill: #6e4f38;
      }

      .cls-27 {
        fill: #22130e;
      }

      .cls-28 {
        fill: #6f5a4c;
      }

      .cls-29 {
        fill: #2e1b14;
      }

      .cls-30 {
        fill: #997e6d;
      }

      .cls-31 {
        fill: #73625b;
      }

      .cls-32 {
        fill: #2a1b14;
      }

      .cls-33 {
        fill: #77604f;
      }

      .cls-34 {
        fill: #5d3a28;
      }

      .cls-35 {
        fill: #674c3b;
      }

      .cls-36 {
        fill: #91673d;
      }

      .cls-37 {
        fill: #3e2319;
      }

      .cls-38 {
        fill: #ae8654;
      }

      .cls-39 {
        fill: #584541;
      }

      .cls-40 {
        fill: #54453f;
      }

      .cls-41 {
        fill: #0d080d;
      }

      .cls-42 {
        fill: #917864;
      }

      .cls-43 {
        fill: #3a2720;
      }

      .cls-44 {
        fill: #301e14;
      }

      .cls-45 {
        fill: #5c3d2a;
      }

      .cls-46 {
        fill: #615245;
      }

      .cls-47 {
        fill: #7a6b67;
      }

      .cls-48 {
        fill: #100909;
      }

      .cls-49 {
        fill: #2c1f19;
      }

      .cls-50 {
        fill: #705f57;
      }

      .cls-51 {
        fill: #251714;
      }

      .cls-52 {
        fill: #1c1213;
      }

      .cls-53 {
        fill: #d1beb7;
      }

      .cls-54 {
        fill: #361d13;
      }

      .cls-55 {
        fill: #382014;
      }

      .cls-56 {
        fill: #2f1e17;
      }

      .cls-57 {
        fill: #a08363;
      }

      .cls-58 {
        fill: #907c71;
      }

      .cls-59 {
        fill: #fff7ee;
      }

      .cls-60 {
        fill: #95734d;
      }

      .cls-61 {
        fill: #95795d;
      }

      .cls-62 {
        fill: #5e493f;
      }

      .cls-63 {
        fill: #513b30;
      }

      .cls-64 {
        fill: #8f7867;
      }

      .cls-65 {
        fill: #695a54;
      }

      .cls-66 {
        fill: #c3ab9b;
      }

      .cls-67 {
        fill: #35261f;
      }

      .cls-68 {
        fill: #67544d;
      }

      .cls-69 {
        fill: #251711;
      }

      .cls-70 {
        fill: #0b070a;
      }

      .cls-71 {
        fill: #0f0c0f;
      }

      .cls-72 {
        fill: #4a382e;
      }

      .cls-73 {
        fill: #99703c;
      }

      .cls-74 {
        fill: #2a201e;
      }

      .cls-75 {
        fill: #1c1513;
      }

      .cls-76 {
        fill: #b39f8d;
      }

      .cls-77 {
        fill: #271811;
      }

      .cls-78 {
        fill: #1b1211;
      }

      .cls-79 {
        fill: #7a5d3b;
      }

      .cls-80 {
        fill: #2a1a15;
      }

      .cls-81 {
        fill: #100c10;
      }

      .cls-82 {
        fill: #201414;
      }

      .cls-83 {
        fill: #544039;
      }

      .cls-84 {
        fill: #a3948f;
      }

      .cls-85 {
        fill: #78563b;
      }

      .cls-86 {
        fill: #352724;
      }

      .cls-87 {
        fill: #513529;
      }

      .cls-88 {
        fill: #c9b59d;
      }

      .cls-89 {
        fill: #0f0c10;
      }

      .cls-90 {
        fill: #342721;
      }

      .cls-91 {
        fill: #110d10;
      }

      .cls-92 {
        fill: #a28064;
      }

      .cls-93 {
        fill: #e4dbd5;
      }

      .cls-94 {
        fill: #38241a;
      }

      .cls-95 {
        fill: #856854;
      }

      .cls-96 {
        fill: #7e5b41;
      }

      .cls-97 {
        fill: #715952;
      }

      .cls-98 {
        fill: #56423b;
      }

      .cls-99 {
        fill: #e5d1c7;
      }

      .cls-100 {
        fill: #b28c65;
      }

      .cls-101 {
        fill: #5d534a;
      }

      .cls-102 {
        fill: #836042;
      }

      .cls-103 {
        fill: #5b2813;
      }

      .cls-104 {
        fill: #63554b;
      }

      .cls-105 {
        fill: #402e24;
      }

      .cls-106 {
        fill: #3b3132;
      }

      .cls-107 {
        fill: #755b46;
      }

      .cls-108 {
        fill: #6e5c50;
      }

      .cls-109 {
        fill: #88776d;
      }

      .cls-110 {
        fill: #715f51;
      }

      .cls-111 {
        fill: #927258;
      }

      .cls-112 {
        fill: #a4938c;
      }

      .cls-113 {
        fill: #3f2d23;
      }

      .cls-114 {
        fill: #151011;
      }

      .cls-115 {
        fill: #dac6b9;
      }

      .cls-116 {
        fill: #c9ac82;
      }

      .cls-117 {
        fill: #432719;
      }

      .cls-118 {
        fill: #725640;
      }

      .cls-119 {
        fill: #3e2a21;
      }

      .cls-120 {
        fill: #0c080b;
      }

      .cls-121 {
        fill: #362720;
      }

      .cls-122 {
        fill: #150e11;
      }

      .cls-123 {
        fill: #fff;
      }

      .cls-124 {
        fill: #4b2b1d;
      }

      .cls-125 {
        fill: #947b68;
      }

      .cls-126 {
        fill: #181112;
      }

      .cls-127 {
        fill: #b69972;
      }

      .cls-128 {
        fill: #8a7b76;
      }

      .cls-129 {
        fill: #331c13;
      }

      .cls-130 {
        fill: #a7907e;
      }

      .cls-131 {
        fill: #dccac1;
      }

      .cls-132 {
        fill: #38271f;
      }

      .cls-133 {
        fill: #14100f;
      }

      .cls-134 {
        fill: #b89984;
      }

      .cls-135 {
        fill: #9d7f65;
      }

      .cls-136 {
        fill: #915c2c;
      }

      .cls-137 {
        fill: #694f3a;
      }

      .cls-138 {
        fill: #c19f7e;
      }

      .cls-139 {
        fill: #765c4b;
      }

      .cls-140 {
        fill: #63432d;
      }

      .cls-141 {
        fill: #50311f;
      }

      .cls-142 {
        fill: #624732;
      }

      .cls-143 {
        fill: #fffdf4;
      }

      .cls-144 {
        fill: #9f8a7f;
      }

      .cls-145 {
        fill: #e1d0c3;
      }

      .cls-146 {
        fill: #998880;
      }

      .cls-147 {
        fill: #80716e;
      }

      .cls-148 {
        fill: #49352c;
      }

      .cls-149 {
        fill: #201211;
      }

      .cls-150 {
        fill: #1d181a;
      }

      .cls-151 {
        fill: #6e4e39;
      }

      .cls-152 {
        fill: #605354;
      }

      .cls-153 {
        fill: #bcafa8;
      }

      .cls-154 {
        fill: #7c5a3f;
      }

      .cls-155 {
        fill: #a3948e;
      }

      .cls-156 {
        fill: #ead7cc;
      }

      .cls-157 {
        fill: #a28e88;
      }

      .cls-158 {
        fill: #785534;
      }

      .cls-159 {
        fill: #26140f;
      }

      .cls-160 {
        fill: #2b1e16;
      }

      .cls-161 {
        fill: #694f3e;
      }

      .cls-162 {
        fill: #694a36;
      }

      .cls-163 {
        fill: #70523a;
      }

      .cls-164 {
        fill: #816e61;
      }

      .cls-165 {
        fill: #988275;
      }

      .cls-166 {
        fill: #949297;
      }

      .cls-167 {
        fill: #b99774;
      }

      .cls-168 {
        fill: #1e1410;
      }

      .cls-169 {
        fill: #8f8282;
      }

      .cls-170 {
        fill: #665146;
      }

      .cls-171 {
        fill: #2a1912;
      }

      .cls-172 {
        fill: #5a3528;
      }

      .cls-173 {
        fill: #5e4435;
      }

      .cls-174 {
        fill: #100c0d;
      }

      .cls-175 {
        fill: #241917;
      }

      .cls-176 {
        fill: #362923;
      }

      .cls-177 {
        fill: #61372e;
      }

      .cls-178 {
        fill: #513a2c;
      }

      .cls-179 {
        fill: #87756c;
      }

      .cls-180 {
        fill: #2d1a14;
      }

      .cls-181 {
        fill: #432f26;
      }

      .cls-182 {
        fill: #7c695f;
      }

      .cls-183 {
        fill: #aa9c99;
      }

      .cls-184 {
        fill: #e0cfc2;
      }

      .cls-185 {
        fill: #866a54;
      }

      .cls-186 {
        fill: #342522;
      }

      .cls-187 {
        fill: #52382b;
      }

      .cls-188 {
        fill: #4a2e23;
      }

      .cls-189 {
        fill: #81716a;
      }

      .cls-190 {
        fill: #2d1a11;
      }

      .cls-191 {
        fill: #d8c9c2;
      }

      .cls-192 {
        fill: #e3ba6b;
      }

      .cls-193 {
        fill: #d1c9c7;
      }

      .cls-194 {
        fill: #cfc0b5;
      }

      .cls-195 {
        fill: #22181d;
      }

      .cls-196 {
        fill: #7b5f47;
      }

      .cls-197 {
        fill: #2a1b18;
      }

      .cls-198 {
        fill: #2b1911;
      }

      .cls-199 {
        fill: #38251e;
      }

      .cls-200 {
        fill: #6f5d55;
      }

      .cls-201 {
        fill: #25140e;
      }

      .cls-202 {
        fill: #8b746e;
      }

      .cls-203 {
        fill: #2e231f;
      }

      .cls-204 {
        fill: #100d11;
      }

      .cls-205 {
        fill: #c8a27b;
      }

      .cls-206 {
        fill: #3f291c;
      }

      .cls-207 {
        fill: #907560;
      }

      .cls-208 {
        fill: #887873;
      }

      .cls-209 {
        fill: #a28d78;
      }

      .cls-210 {
        fill: #4f3423;
      }

      .cls-211 {
        fill: #1b0f11;
      }

      .cls-212 {
        fill: #39281e;
      }

      .cls-213 {
        fill: #281c18;
      }

      .cls-214 {
        fill: #20110a;
      }

      .cls-215 {
        fill: #94898a;
      }

      .cls-216 {
        fill: #5e3f2e;
      }

      .cls-217 {
        fill: #a08778;
      }

      .cls-218 {
        fill: #7a624e;
      }

      .cls-219 {
        fill: #51372a;
      }

      .cls-220 {
        fill: #be9b81;
      }

      .cls-221 {
        fill: #f3e1d8;
      }

      .cls-222 {
        fill: #6b605c;
      }

      .cls-223 {
        fill: #bba695;
      }

      .cls-224 {
        fill: #c4b3a6;
      }

      .cls-225 {
        fill: #895f3b;
      }

      .cls-226 {
        fill: #241915;
      }

      .cls-227 {
        fill: #cbaf97;
      }

      .cls-228 {
        fill: #281719;
      }

      .cls-229 {
        fill: #191412;
      }
    </style>
  </defs>
  <g id="Oso">
    <g id="Vector">
      <path class="cls-33" d="m42,117l-18,27,7,31s4,20,4,25,15,5,18,15,4,19,11,28,13,16,15,26,0,28.19,0,28.19c0,0,4,19.81,3,25.81s4,34,4,34l2,7-14,29-18,35.33-5,6.67s4-1-3,8-20,18-20,18h41.7s4.3-13.96,18.3-27.48,29-24.52,34-34.52,8-17,8-17c0,0,11,17,17,21s24,17,32,21,39,16,39,16l5,3s7,15,8,22,2,25,2,25l63-7,3.75-54.67-9.75-4.33-2-14s0-23-5-38-15-30-15-30l-13-24s.19-10,.1-14.5c-.1-4.5-4.1-14.5-3.1-21.5s9-32,9-32l-3-19-9-5s-5-6-5-18-3-26-3-26c0,0,2-12,4-15s-7-11-8-20-5-18-1-33,10-24,10-24v-37s-1-28-2-29,0-11-6-12-9-2-16,4-18,17-18,17l-14,15s-13,14-15,17c-.74,1.11-3.8,1.12-7.37.7-5.45-.64-11.04-.29-16.2,1.58-1.81.66-4.74,1.03-9.43.72-17.08-1.14-31-3-31-3,0,.4-6.06-9.33-10-14-2.88-3.42-8-18-15-27S72,3,64,3s-9,0-11,3-7,28-7,28c0,0-5,26-5,33s-1,33-1,33c0,0-1,6,1,10s1,7,1,7Z"/>
      <path class="cls-59" d="m31,458.57s-4.41-.49-7.2,1.97-6.88,5.73-6.88,5.73l-7.92,3.73s-7.31,6.32-7.16,7.66-1.84,6.34-1.84,6.34l1,6h5.82s6.45-.52,7.32-1.76,3.86-3.24,3.86-3.24l-5.62,7.76h11.12s3.5-.76,9.5-2.76,14.1-7.89,14.1-7.89l3.28-1.44v-.9l5.47-3.92,1.44-2.44-26.29-14.84Z"/>
      <polygon class="cls-152" points="39 452 31 458.57 28.63 465.56 30.06 466.27 33.81 465.56 33.81 468 47.1 469.07 48.87 457.24 39 452"/>
      <polygon class="cls-165" points="63.19 464 56.75 474.27 53 472 49 473 46.36 474.27 31 470 40.27 465.56 45 468 47.1 465.56 46 461.01 45.82 451.88 57.26 442.87 63.19 464"/>
      <path class="cls-72" d="m58.36,425.44l-6.09,7.06s-.54,7.23-3.4,10.37-9.87,9.13-9.87,9.13l.73,5.24,4.3,1.69,3.94-7.05,9.03-5.88,4.76-13.5-3.4-7.06Z"/>
      <polygon class="cls-43" points="78.42 441.08 63.19 464 59.43 464.51 55.31 455 52.27 456 52.27 448.12 60.69 439.25 78.42 441.08"/>
      <path class="cls-197" d="m74.12,396.97l-8.24,13.57-2.69,4.87-.72,3.65s-1.76,4.83-4.12,6.39,3.36-1.44,0,7.06-6.09,10.37-6.09,10.37c0,0,3.79,5.4,3.76,7.77s1.97,4.37,1.97,4.37l7-3-1.81-4.86.9-6.06,8.24-6.08,1.79-38.03Z"/>
      <path class="cls-65" d="m81.88,430.23l-3.46,7.92v2.93l-15.22,1.79-3.76-1.79.72-4.53s3.24,2.45,3.04-1.55l-.19-4,18.88-.77Z"/>
      <polygon class="cls-84" points="74.12 396.97 68.39 412 69.1 416.6 66.24 420.08 63.19 428.94 63.19 431.4 68.66 431 75.73 431.7 80.78 430.68 89.26 397.79 79.13 389.37 74.12 396.97"/>
      <path class="cls-97" d="m107.37,408.47s-5.92,2.2-7.15,4.36c-1.23,2.16-15.23,16.11-15.23,16.11l-5,2.06-3.42-4.52,5.85-6.4v-34.85l17.57-11.5,7.37,34.74Z"/>
      <path class="cls-51" d="m95.52,373.73l-7.57,11.7-6.07,13.97-2.88-5.4-4.88,2.97s5.74-17.5,8.31-23.23c2.57-5.73,4.34-11.76,4.34-11.76l9.73,3.39,2.29,6.12-3.27,2.25Z"/>
      <polygon class="cls-201" points="127.8 380.16 119 403.44 112.08 401.42 107.37 408.47 100 395.95 109.6 366.22 130.63 369.85 127.8 380.16"/>
      <polygon class="cls-56" points="127.8 376.74 119.25 379.99 110.6 372.08 111.38 384.36 105.51 389.37 101.06 404.85 90.54 410 96.77 384.36 92.76 391.04 89.26 385.23 94.5 371.27 103.08 350.33 117.54 353.43 127.8 376.74"/>
      <polygon class="cls-187" points="87.96 346.39 86.77 361.97 96.77 371.27 100 379.99 103.29 369.85 102 358 106 356.42 109 343.76 87.96 346.39"/>
      <path class="cls-131" d="m116.51,448.84s-3.32,1.97-5.92,5.07-11,9.5-12.8,13.8c-1.8,4.3-.7,6.57-.7,6.57l.7,1.58,3.73,1.81.48,1.34s.28,1.14,4.64,1.57,7.36-.57,7.36-.57l3.71-2.34v-1.81h4.79l3.5-12.96-9.48-14.06Z"/>
      <path class="cls-20" d="m144,464l-8,4-4.96-.64v2.04s-1.04,2.85-2.04,2.73-4,3.72-4,3.72h-7.29v-1.58l3.29-.78s2,3.08,1.5-1.7-2.75-7.79-2.75-7.79h-3.58l-4.09-4.08s3.92-.92,4.92-4.92-.49-6.16-.49-6.16l4.49-4.08,22,1.25,6.29,8.58-5.29,9.42Z"/>
      <path class="cls-89" d="m174.08,442.87s-5.54,8.01-11.81,12.57c-6.27,4.56-18.27,8.56-18.27,8.56,0,0,3-6.47,0-8.73-3-2.27-13-2.27-13-2.27l-5,.43s3.15-2.76,1.08-4.6-6.07-4.08-6.07-4.08c0,0,17.93-10.75,20.46-12.25s5.54.45,5.54-6.02-1.36-27.07-1.36-27.07l11.36,4.6s26.17,36.73,17.08,38.87Z"/>
      <path class="cls-176" d="m152.45,405.85s3.55,5.15,6.55,12.15,3.27,14.5,3.27,14.5c0,0-1.51,4.8,3.61,5.65s8.2-3.84,8.2-3.84l-5.97-29.46-15.66,1Z"/>
      <path class="cls-134" d="m198.78,516.18l-9.49-3.56s-.22-7.2-1.25-10.41-4.65-10.39-4.65-10.39l2.94-17.55,11.05,10.03,1.4,31.88Z"/>
      <path class="cls-28" d="m181,490.21s3.64,4.24,4.32,5.01,4.25-.96,3.96-6.09-2.96-12-2.96-12l2.96-17.22-11.82,14.35,3.54,15.94Z"/>
      <path class="cls-99" d="m218,514.51s2.69-10.42.85-13.46c-1.85-3.04-3.08-9.58-3.08-9.58l-26.48-31.55-3.96,12.56s-6.32,2.52-3.32,6.52,9,3,10,5,1.51,9.61,1.51,9.61c0,0-1.51,8.39.49,11.39s3.37,6.52,3.37,6.52l1.4,4.66,19.22-1.67Z"/>
      <path class="cls-142" d="m206,473s9.52,13.93,9.76,18.46c.24,4.54-.49-4.07-7.63-6.27s-12.58-4.62-12.58-4.62c0,0-.69-6.57-4.12-7.57s-3.4-14.07-3.4-14.07l17.97,14.07Z"/>
      <path class="cls-91" d="m181,488.24s-3-7.24-1-12.24,6.32-17.07,6.32-17.07l2.96-39.76-24.9-2.58s-1.18,4.42.72,5.91,2.9,2.49,3.9,5.49.58,10.15.58,10.15c0,0,3.31,9.13,2.87,8.99s4.25,15.62,3.4,16.74-2.85,5.12-1.85,7.12,2.93,8.14,3.46,9.57,3.54,7.67,3.54,7.67Z"/>
      <path class="cls-150" d="m236,484s-7,3.39-10,1.19-9-6.19-9-6.19l-3.9,1.57s-1.82-4.03-8.46-6.3c-6.64-2.27-10.64-4.27-10.64-4.27l-4-8h-3.68l-3.32,7.25-2-6.25,1-13s-1.36-3.13,4.32-4.57c5.68-1.43,32.58-5.58,32.58-5.58l23.1,30.15-6,14Z"/>
      <path class="cls-71" d="m237.81,466.27s-15.81-1.27-19.81-3.27-13.51-7-17.25-7,5.91-11.25,5.91-11.25l24.34-9.75,6.81,31.27Z"/>
      <polygon class="cls-77" points="232.45 438.15 218 436 220.81 414.81 229.16 420.08 232.45 438.15"/>
      <polygon class="cls-14" points="206.12 405.85 197.37 413.06 204.64 432.5 218.12 426.63 218.9 412.84 206.12 405.85"/>
      <path class="cls-87" d="m220,453l4.57-4.16,4.6-9.58-6.93-7.85s-1.54-10.29,1.11-12.35-7.35-7.06-7.35-7.06l1,12s-10.72-2.11-12.36,1.44c-1.64,3.56-2.28,12.7-2.28,12.7l17.64,14.85Z"/>
      <path class="cls-35" d="m186.32,426.63l-3.32,7.68-7.15,6.77,10.47,4.36s5.92,5.24,7.8,3.4-5.12,7.16-5.12,7.16h10.31l11.3-1.25,4.38-3.75,3.9-8.13-8.9-8.84-23.68-11.52v4.12Z"/>
      <polygon class="cls-15" points="298 447.14 312 504 302 513 289 514 288 468 298 447.14"/>
      <polygon class="cls-200" points="298 457.24 300.45 448.84 303.67 437.78 299.75 419.06 280 428 298 457.24"/>
      <polygon class="cls-98" points="289 514 294.34 506.42 288 484 282.74 458.93 273.06 460.21 270 512.62 289 514"/>
      <polygon class="cls-179" points="285.69 431.4 298 458 290.97 488.74 291.84 505.68 285.69 504.79 283 472 273.06 461.01 277.07 426.63 285 425.44 285.69 431.4"/>
      <polygon class="cls-58" points="290.5 425.37 279.07 434.31 279.07 406.65 287.61 405.85 290.5 425.37"/>
      <polygon class="cls-105" points="253 516.18 258 516.18 270 499.88 267 485.91 261 487 253 516.18"/>
      <polygon class="cls-9" points="276 512.62 273.7 508 277.98 506.33 277.98 493.43 277.98 478.75 280 470 276.85 463.7 282 463 284 452 277.98 437.37 280.98 428.94 280.98 411.94 268.5 405.85 256 461 268.5 500.6 263 504 258 501.49 258.96 508 258 516.18 276 512.62"/>
      <path class="cls-74" d="m239,512.62s.35.06-.82-3.78-2.18-11.84-2.18-11.84c0,0-2-7-2-8v-3.63l4.18-11.1,15.82,29.91-1,12-14-3.56Z"/>
      <path class="cls-147" d="m226,419s1,16,1,17,4,15,4,15l4.49,15.27v7.82l4.84,11.82v9.73s8.59,10.97,9.13,15.16,3.54,5.37,3.54,5.37l2.5-43.34-14.1-60-15.4,6.16Z"/>
      <path class="cls-169" d="m240.33,431.4l-2.16.96s-.82,5.37,0,10.51c.82,5.13,5.82,20.06,5.82,20.06l7,3.34-5.84-31.96-4.83-2.91Z"/>
      <polygon class="cls-208" points="272.15 442.87 266.99 440.72 263 454 267.57 470.09 265 495.64 251 447.4 244 390.81 268.5 386.51 272.15 442.87"/>
      <path class="cls-106" d="m261.57,390.09l-7.57,7.4s-5.94,1.81-5.97,9.16,2.97,23.32,2.97,23.32l3,23.03,4,1.81v12.42l3.57,17.43,3.43,10.99-2,5.36h-3.03l-3.46,4.91-3.51,8.6-7.12-15.51,3.58-11.48,3.54-3.1-3.54-16.24-1.46-12.18-6.6-23.64-2.4-20.36,5-33.61,6.9-3.39,10.68,15.09Z"/>
      <polygon class="cls-83" points="272.15 442.87 272.15 410 280.98 382.97 258 357.02 253 376 258 393.91 263.07 399.94 261.57 410 268.5 435.7 272.15 442.87"/>
      <polygon class="cls-207" points="267 376 270 377 270 385.79 275 392 272.15 410 280.98 416.6 293.4 399.4 285 346.39 271 330.87 254 340.18 267 376"/>
      <path class="cls-34" d="m287,431.4l5.69-2.46,7.06-6.86,3.92-13.62-8.67-9.07-10,10.6s3,2.84,2,10.42,0,10.99,0,10.99Z"/>
      <path class="cls-82" d="m287,386.51v10.49l-2,13s3.76-5.7,8.88-3.35,9.79,1.82,9.79,1.82l1.33-42.98-10-9.55-8,30.57Z"/>
      <polygon class="cls-94" points="240.33 316.76 253 332 253 343.76 242.06 351.4 223.35 336.84 240.33 316.76"/>
      <path class="cls-128" d="m246.84,382.93l7.16,1.43,3,8.36c9-8.72,2.49-17.72,2.49-17.72l.51-10-5.7-22.74-6.12-2.72h-4.21l-1.91,10.79s-3.93-11.26-5.49-10.79-9.31-1.54-9.31-1.54l-8.36,15.43,27.94,29.49Z"/>
      <path class="cls-164" d="m207.67,410.87c8.33,5.13,18.33,10.13,18.33,10.13l7,5.63,2-3.63,8.5-2.82.47-7.16-2.57-8.12h2.1l5.96-9.79-2.63-12.18-21.84-34.93-35.36,3.4-31.64,24.6,49.67,34.87Z"/>
      <path class="cls-219" d="m271,341.37s0-5.93-6-2.15c-6,3.78-9.33,4.54-9.33,4.54l-6.67-2.76s3-.67,1-6.34-8.6-16.66-8.6-16.66l4.27-16.27,12.99-3.73,30.34,25-18,18.37Z"/>
      <path class="cls-159" d="m267,376s-1-7.15-9-9.07-11-3.93-11-3.93l7-8.73-1.19-4.66-8.81-10.61,10-2.64v-5.49l4,3.8s2.51,3.85,1.25,7.59c-1.25,3.74,2.32,9.86,2.32,9.86l3.43,3.1,2,20.78Z"/>
      <polygon class="cls-140" points="204.64 428.94 197 405 174.5 384.36 166 410 204.64 428.94"/>
      <path class="cls-27" d="m179,388s3,5,13,11,15.67,11.87,15.67,11.87l-5.67,4.13,2.64,13.94s-5.97-19.17-11.31-18.56-8.34.61-8.34.61c0,0-7-19-6-23Z"/>
      <path class="cls-13" d="m276,319.67v6s2-.55,0,6.39-5,5.01-5,5.01v4.3l6.98,2.39,12.98-19.1-6.97-13.54-8,8.55Z"/>
      <path class="cls-124" d="m297,298l6,2,2,65.49s-9.06-2.49-14.03,9.51-3.97,11.51-3.97,11.51c0,0,1-8.66-3-19.58s-8-22.93-8-22.93c0,0,8-6.27,8-13.13s-2-17.87-2-17.87l14.82-13.94"/>
      <path class="cls-190" d="m282,318l8.97-7.88s-1.97-1.12,2.03-5.12,4-7,4-7l-7.5-10.28-18.5,24.28,11,6Z"/>
      <path class="cls-136" d="m278.84,264.18s6.85,9.82,10.51,15.82,0,19.06,0,19.06l-11.34,13.94,4,5-4,6.66-13-13.66,13.84-46.82Z"/>
      <polygon class="cls-24" points="171.61 376.72 174.5 375 179 378 188 378 193.51 386.51 208.79 389.37 206 357 163.85 350.33 164.81 377.67 167.5 383.16 171.61 376.72"/>
      <path class="cls-100" d="m87.96,346.39l8.54,3.94h7.7l1.8,6.09s4-4.58,7,0c3,4.58,4.54,12.66,4.54,12.66l6.76,5.93,8.26,4.1,1.69,6.21,6.74,12.18s6.85,8.81,13.93,12.66,16.07,7.85,19.07,10.85,17.42,7.78,17.42,7.78c0,0,13.58,2.28,18.58,5.25s-22-18.63-22-18.63l-6.73-.48s-3.92,1.16-4.1-7.88,1.82-19.04,1.82-19.04l-7.39-11.28s-5.61,5.09-4.11-9.31-.44-17.07-.44-17.07l-44.71-24.66-32.3,9-2.09,11.72Z"/>
      <path class="cls-146" d="m249.46,314.63h-5.49v5.04l-8.6,14.97-2.37,11.75-5.75,5.25h-8.36l-4.46,4.78-14.44,18.58s-3.88-6.54-13.94-9.27c-10.06-2.73-16.36-5.49-16.36-5.49l-1.58-15.43,21.53-28.99,21.85-13.31,32.01-8.18,5.96,20.3Z"/>
      <path class="cls-167" d="m252.09,240.36s8.13,1.75,15.52,10.19,11.22,13.63,11.22,13.63l-2.84,9.82,11,10v7l-11,14-6.46,14.67h-6.23l-13.31-24.67,1-53.98"/>
      <polygon class="cls-95" points="243.5 298.15 233 306.33 233.55 317.97 222.35 327.76 203.61 310.12 208.61 270.35 243.5 298.15"/>
      <polygon class="cls-55" points="263 308 258 296.48 264.27 292.94 267 284 262.5 281.77 262.5 275.94 272.15 269.91 266.42 265.91 254 257.92 254 292.94 251 305 263 308"/>
      <polygon class="cls-225" points="253.36 243.88 258 271 255.68 319.67 248.51 316.76 241.4 301.73 235 291 229.16 269.91 253.36 243.88"/>
      <polygon class="cls-141" points="246.84 249.7 241.4 276.42 235.37 281.43 235 291 230.92 291 221.52 283.82 207.67 272.6 213.8 257.92 246.84 249.7"/>
      <polygon class="cls-185" points="254 237.49 254 242.39 249 254 234.46 265.91 220.51 269.91 213.1 259.22 243.97 229.49 254 237.49"/>
      <polygon class="cls-138" points="242.06 158 245 164 241.4 170.14 246.12 183 239.19 190.55 245 206 250.18 218.5 254 237.49 234.46 239.03 233 146 242.06 158"/>
      <polygon class="cls-154" points="241.4 237.49 243.97 228 236.57 222.45 239.19 207.74 233.46 183 218.9 221.01 241.4 237.49"/>
      <polygon class="cls-170" points="181.27 350.33 184.99 338 186.06 325.67 204.64 328.3 211.49 325.67 203.64 312.9 211.49 302.51 213.1 293.91 204.64 269.91 154.18 319.67 153.58 334.64 181.27 350.33"/>
      <polygon class="cls-137" points="153.58 349.61 149.08 349.61 139 339.58 125 346.39 122.5 324.36 147.97 319.67 160.43 335.46 153.58 349.61"/>
      <path class="cls-69" d="m183,303l-6,13.76-7.88,1.87-10.53,1.04-2.2,12.39,8.41-1.43,2.69,5.91,7.96-5.73,3.77,5.73,2.04,13.79-3.45,7.34-8.7.72s-11.96-8.16-15.54-8.78c-3.58-.61-1.58-13.79-1.58-13.79l-4.21-10.39-2.03,8.42-3.76-.4-13-19.84,23.53-20.67,30.47,1.68v8.37Z"/>
      <path class="cls-133" d="m241.4,237.49l-5.9-4.26-16.31-2.23-37.4,39.81-15.91,20.42,5.73,13.07,10.18,1.25,7.85,9.07s-3.36-11.06,0-11.34,9.36,6.72,9.36,6.72c0,0,1-3.36-3-10.18s5.46-10.03,5.46-10.03l3.54-10.79,6,8,7-11-2.57-11.82,9.57-.18s-1.14-10.46,2.93-13.73c4.07-3.27,13.47-12.78,13.47-12.78Z"/>
      <path class="cls-148" d="m189.64,267.94l15-8.6-1.03-1.42,9.31-7.66,4.54-3.27s-2.46-3.22-1.46-4.61,16-8.39,16-8.39l4.57-1-9.85-10.55,5.91-5.94-8.06-9.01-21.67,9.13-13.25,51.31Z"/>
      <polygon class="cls-44" points="125 338 127 331.34 137.5 333.25 143 333.49 139 326.36 134.26 321.79 141 315.82 141 305.31 128.98 295.52 99 320 125 338"/>
      <path class="cls-168" d="m125,346.39s-.5-4.55-5.75-5.97c-5.25-1.42-10.95-2.39-10.95-2.39l-1.3-3.1-14.23,6-1.77-21.25,15-13.34,4.6,16.42s-4.45-1.03.98,3.61,7.6,1.29,12.02,5.46c4.41,4.18,1.41,14.57,1.41,14.57Z"/>
      <polygon class="cls-181" points="110.6 310.57 96 326.09 95.52 337.79 87.96 346.39 85 329.19 91.5 292.94 110.6 310.57"/>
      <polygon class="cls-180" points="92.76 296 89 310.57 85 329.19 83 311.28 80.78 300.78 81.91 293.13 80.78 286.45 85.1 277.37 92.76 296"/>
      <polygon class="cls-158" points="193.51 260.81 191.42 268.06 188 278.57 184.27 278.57 177 287.64 173.1 285.01 173.68 291.46 163.85 300.06 162 308.18 156.4 314.63 148.44 312.24 148.44 307.7 145.04 306.27 141 314.63 131.04 295.31 177 260.81 193.51 260.81"/>
      <polygon class="cls-8" points="193.92 257.92 195.49 252.06 201.82 250.55 206.72 245.73 204.64 236 207.67 224 180.67 232 171.61 248.46 193.92 257.92"/>
      <polygon class="cls-214" points="163 280 169.7 278.57 175.46 274.51 177.82 263.76 180.67 269.49 185 267 196 259 175.46 248.36 153 261 163 280"/>
      <polygon class="cls-118" points="139 294 125 311.28 122.35 315.82 107 313.91 92 301.73 83 281.43 80.78 263.76 110 267 139 294"/>
      <polygon class="cls-210" points="160.43 268.54 156.4 265.91 162 258.27 172 255 177 248.46 171.84 241.02 141 256.31 140 273.55 160.43 268.54"/>
      <polygon class="cls-212" points="62 237.49 71.07 250.27 75.09 253.02 76.33 258.99 83 272.6 93.03 265.91 100.23 248.36 78 228.51 62 237.49"/>
      <polygon class="cls-127" points="97.52 253.02 81.88 254.93 81.88 263.76 86.13 269.49 90.54 270.45 89 274.99 96 292.66 109.6 301.73 127.91 301.73 132.57 292.18 134.1 300.78 139 300.3 143.9 291.22 149.08 291.22 153 290 156.4 284.06 163 280 160.43 268.54 150.8 270.21 145.04 270.69 143 258.51 97.52 253.02"/>
      <polygon class="cls-85" points="184.27 235.5 146.1 260.18 141.29 265.91 119 261.85 123.59 253.25 154.93 236.42 186.06 231 184.27 235.5"/>
      <polygon class="cls-22" points="210 214 207.67 228.51 196.93 228.51 193.91 232.33 188 236.42 179.23 245.73 177.82 250.27 153.58 253.25 160.43 247 173.1 240.36 181.79 233 167.06 236 162 235 162.93 225.97 210 214"/>
      <polygon class="cls-50" points="90.05 242.39 80.78 239.03 79 236.42 72.31 240.36 70.36 237.49 69.04 235 62 237.49 62.96 234 60.6 230.48 58.19 226.75 59 224 59.25 218.5 87.96 227.19 90.05 242.39"/>
      <path class="cls-57" d="m87.96,239.4l-4.96,2.6-.57,3.73,5.07,2.75,6.47,3.34,7.11,2.39s4.93,1.79,9.93,1.79h11.35l1.74,1.31,4.89-2.63,6.02-.69s5-.84,6-2.42,4.04-7.16,4.04-7.16l-57.08-5.01Z"/>
      <polygon class="cls-184" points="140 245.73 136.5 248.24 127 248 119.25 250.27 102 249 91 245.01 98 245.01 97.52 243.82 92.76 242 89.26 238.33 101.07 237.49 130.91 237.49 140 241.02 140 245.73"/>
      <polygon class="cls-26" points="188 224.44 184.03 224.96 186.06 227.22 184.51 228.51 177.18 229.49 171.25 231.5 169.7 231 167.5 227.97 162.93 225.97 167.06 220.5 186.06 220.11 188 224.44"/>
      <polygon class="cls-129" points="186.06 222.45 177.82 223.04 176.39 224.96 171.85 225 169.7 224 164.81 222.45 171.42 212 186.06 222.45"/>
      <polygon class="cls-21" points="142 205.73 144 223 132.57 232 108.37 232.25 99 228.76 95 217.79 94.5 211.45 101.94 201.01 142 205.73"/>
      <path class="cls-25" d="m115.97,224s1.03-5,4.03-8,6.84-1,6.84-1l7.27-4-2.25-5.27-12.85,1.77-8.4.89s4.87,1.61,5.13,7.61c.27,6,.24,8,.24,8Z"/>
      <path class="cls-211" d="m141,205.73l-3.66,3.27-3.24,2s-4.47-1.9-6.79-1.45-3.67-.55-5.49,1.45-2.82,2-2.82,2c0,0-.34-1.39-2.67-2.7s-7.33-.75-7.33-.75l-1.63-.19-.84-.98s.54-.39,0-2.39-5.46-2.9-5.46-2.9l2.93-7.1,4.45-2,25.65,2.06,6.9,3.68v5.99Z"/>
      <path class="cls-120" d="m140,203.1l-5.16-3.37-10.84-.74-2.51,6s-2.25-6-5.37-6-10.12-1-10.12-1l-4-2-.93-11.04,11.93-3.07,18.81,1.12,14.3,12.46-6.1,7.64Z"/>
      <path class="cls-198" d="m135.81,241.02l2.19,2.98,2,1.73h11.31s4.34-3.69,5.01-4.71-3.89-2.93-3.89-2.93l-11.87-5.76-4.75,8.69Z"/>
      <polygon class="cls-51" points="87.96 236 83 235 86.13 233.5 86.13 228 93 224.96 95.52 236 87.96 236"/>
      <polygon class="cls-188" points="92.76 229.49 90.54 226 93.46 222.45 95.52 226.75 92.76 229.49"/>
      <polygon class="cls-54" points="132.57 240.67 127 242 122.5 239.85 116 240 112.66 242 107.85 239.85 101 239.85 93.47 238.99 95.74 237.49 112.27 236.42 132.57 240.67"/>
      <polygon class="cls-172" points="143.9 235.5 138.54 236.9 140 238.09 138.54 239.04 136.5 241.02 129 240.36 124.31 234 135.81 230.3 139.37 222.08 142 222.08 143.9 235.5"/>
      <path class="cls-11" d="m124.31,234s2.33,0,5.51,1.5,5.18,1.5,4.18,2.5-3.09,2.36-3.09,2.36h-6.34s-7.32-1.94-11.95-2.15-9.63.79-10.63.79-6.48-.43-6.48-.43l-4.02.84h-3.54v-3.4s2.04,0,3.54-.5,1.01-1.5.75-2-.25-3.1-.25-3.1l.25-1.89,4.75-1.76,5,3.38,15,2.2,7.31,1.67Z"/>
      <polygon class="cls-160" points="50.18 202.72 52.47 213.72 56 219.5 62.51 223.04 62.51 226 65.69 227.1 65.69 230.3 67.73 230.3 71.07 234 74 231.5 75.09 234.87 79.55 236.42 81.88 237.49 78 231.5 76 216 50.18 202.72"/>
      <path class="cls-182" d="m83,220.5l1.03,6.91-1.03,4.84s-.61.74-1.81-2.26,0,1.56,0,1.56l-3.19-3.04-1.67-2.51h-2.33v-2.66l-5-.34v-1.99l-3.84-.51-1.16-3.39-3.4-.6,1.4-8.12,21,12.11Z"/>
      <polygon class="cls-114" points="81.91 220.01 78 219 78 200.6 85.76 203.82 85.1 219 81.91 220.01"/>
      <polygon class="cls-41" points="95 193 95 202.03 92.76 211 89 213 83 203 95 193"/>
      <path class="cls-120" d="m82.43,202.72l1.99,9.28-.99,5.11-1.51,2.9s1.85,3.99,1.97,5.99.54,3.16.54,3.16c0,0,1.58,1.84,2.58.84s5-3.07,5-3.07l2-3.93-1.75-11.39-9.82-8.89Z"/>
      <path class="cls-177" d="m93.97,220.5l-1.97-1.5-2-4h-2l.36,2.11-2.22,2.47s1.91-.55,3.39,1.43,1.43,2.99,1.43,2.99l3.01-3.5Z"/>
      <path class="cls-174" d="m98,211h2s1.28-2,1.64-3.5,1.73-3.68,1.73-3.68l.63-1.82,2-5v-10l-13.24,2.25,1.74,12.42,3.5,9.33Z"/>
      <polygon class="cls-18" points="96.69 206.99 97.52 204.52 96.69 203.82 96.5 202.27 95.52 201.01 94.5 201.01 93.97 203.82 94.9 207.5 96.69 206.99"/>
      <polygon class="cls-64" points="98.79 211.03 98 212 95 212 92.25 209 93 207 94 203 95 204 95 206 96.69 206.24 97.85 207.5 98.79 211.03"/>
      <polygon class="cls-217" points="96 217 96 215.22 97 213 96 212.24 94.36 209.55 93 209 92 209 92 212 93 221 96 217"/>
      <path class="cls-6" d="m98.79,230.4l-1.63-.4-2.16-.99v-1s-1.07-1.1-1.54-5.55-.46-8.45-.46-8.45h1.24l3.76,4,.79,2.01,1.21,4.99v3.51l-1.21,1.89Z"/>
      <path class="cls-93" d="m109.6,230.4l-.6-1.4h-.45l-.85-.49h-1.7l-1.25.94h-1.3l-1.45-1.45h-3v.76l-.21,1.63.49.6s-.06.99,2.33,1,4.3.25,4.3.25h3.69v-1.85Z"/>
      <polygon class="cls-202" points="115.18 231.55 114.15 231.55 114 231 113.84 233 115.18 233 115.18 231.55"/>
      <polygon class="cls-103" points="140 215 141.29 216.48 141.76 219.51 145.76 220.5 147.79 217.75 144.33 213.72 140 215"/>
      <polygon class="cls-7" points="152 236 144 230 143 224 146 222.08 153.58 221.01 158.6 223.94 152 236"/>
      <path class="cls-119" d="m165.88,224l-1.88,10s2,1-3,4-9,3-9,3c0,0-1.42.28-4.21-1.36-2.79-1.64-8.79-5.64-8.79-5.64v-1.49l2-9.51,2.79-.92.72,2.92,1.49,3.8s2.39,4.8,5.2,5.5c2.8.7,14.68-10.3,14.68-10.3Z"/>
      <path class="cls-48" d="m142,216l-2-1s1,0,0-4.73c-1.31-6.21-1.46-7.54-1.46-7.54l.46-5.72,2.29-1.54,11.7,8.36-5.99,9.18-5,3Z"/>
      <path class="cls-168" d="m152,234l5,2.42,1.6-.92s1.4-.46,3.4-3.98,5.5-9.07,5.5-9.07l2.2-2.99,4.3-6.46-13.57-5.26-8.43,26.26Z"/>
      <path class="cls-73" d="m148.69,206l-2.69,3.55,1.34,1.45-2.3.7s-1.73.57-1.89,1.43-1.15,2.87-1.15,2.87l1,2.03h2.04l-.04.97,3.69,3.45,2.31-1.45,2.58-10-1.58-6-3.31,1Z"/>
      <path class="cls-38" d="m141,223l2-.55,2,1.55,3.44-.06s1.44-.93,0-3.93l-1.44-3.01-2,2h-3l-.71,1.5s-.29-.51-.29.99v1.51Z"/>
      <polygon class="cls-70" points="146 228.8 148.44 223.94 150.5 218.57 151.5 215.5 150.5 207.12 150.5 204.52 163.85 208.85 160.43 215.62 158.6 223.94 154.93 228.8 154.93 234 152.5 235.5 150.5 233.65 151.5 229.5 155.97 225 152.5 225 148.14 230.19 146 228.8"/>
      <polyline class="cls-79" points="233 11 226.78 18.47 242 20 239 13"/>
      <path class="cls-135" d="m230.34,18.03l2.66-7.03s-2.14-.84-5.07.58-10.93,9.42-10.93,9.42l-3.36,10.46,13.14-7.22,3.57-6.2Z"/>
      <path class="cls-107" d="m239.19,17.91l-.19-4.91s-.27-1.36,1.87,2.82c2.13,4.18,2.63,5.18,2.63,5.18l-1.22,10.87-4.6-1.9,1.52-12.06Z"/>
      <polygon class="cls-121" points="217.46 27 223.91 24.72 229.16 17.91 234.46 18.47 234.46 27 225.96 37.13 211.64 42.63 207.67 32.7 217.46 27"/>
      <polygon class="cls-160" points="242.06 30.27 239.91 29.97 239.19 17.91 234.46 18.47 227.93 30.27 237.67 45.01 243.49 41 242.06 30.27"/>
      <polygon class="cls-110" points="235.37 38.36 236.47 41 245 39.56 243.49 56.45 231.3 64.66 230.34 45.01 235.37 38.36"/>
      <path class="cls-209" d="m243.49,82.75l2.63-16.84s.12-9.91,0-15.91-2.63-29-2.63-29l-1.43,9.27,1.43,18.22-4.3,9.66-3.82,3.49-8.6,6.36,16.72,14.75Z"/>
      <polygon class="cls-161" points="212.93 41.91 210 35.7 217.46 27 217.46 21 210 27 203.61 37.13 201.09 48.49 212.93 41.91"/>
      <polygon class="cls-109" points="243.49 82.75 243.49 70 240.15 64.66 232.62 66.81 223.35 83.94 223.91 100.84 235.37 99.57 243.49 82.75"/>
      <path class="cls-114" d="m197.64,48.49l12.36-5.86,4.44-4.54,8.91-6.22s4.49-5.31,7.57-3.09,3.53,3.09,3.53,3.09l.92,6.5-4.45,5.59-10.41,19.04-19.76,15.33-16.25-12.42,13.15-17.42Z"/>
      <path class="cls-203" d="m191.42,65.91l3.47,3.22-1.39,2.87s2.46,4,7.48,0c5.01-4,15.01-10.36,15.01-10.36l-7.37,21.1-18.87,2.67-8.18-16.28,9.84-3.22Z"/>
      <polygon class="cls-228" points="201.82 109.91 230.92 70 235.37 61.64 230.92 59.79 234.46 47.16 233 41 221.52 48.49 214.6 59.79 206.48 76.96 193.51 95.82 201.82 109.91"/>
      <polygon class="cls-5" points="197.64 93.49 210 76.96 206 70 201.82 76.96 197.64 76.96 190.24 80.3 188 70 177.82 78.33 194.9 100.84 197.64 93.49"/>
      <path class="cls-88" d="m49.35,17.91l2.01-10.39s1.64-3.55,4.64-4.54,9.88,7.46,9.88,7.46l-9.88,22.63-3.53.96-3.12-16.12Z"/>
      <polygon class="cls-46" points="40.75 70 49.35 17.91 52.47 27.82 40.75 70"/>
      <path class="cls-60" d="m56,2.99s2.19-1.37,4.09-2.18,2.41-.81,2.41-.81l2.36,8.46-4.77,1.93-4.09-7.4Z"/>
      <path class="cls-192" d="m62.51,1.31s2.27-1.82,5.88,1.43l3.61,3.25,3.09,7.73-12.59,2.39-2.41-5.73,2.41-9.07Z"/>
      <polygon class="cls-175" points="52.47 32.36 57 24 61.98 13.73 74 13.73 79 40.4 54 50 52.47 32.36"/>
      <polygon class="cls-75" points="65.69 33.55 60.09 21 65.88 17.91 79 29.97 76.33 42.63 65.69 33.55"/>
      <polygon class="cls-101" points="72.27 16.12 71 20 68.39 20 76.33 27.82 72 31 75.09 37.37 68.39 38.81 68.75 42.63 58.19 43.58 58.19 48.49 85 63 91 37.13 72.27 16.12"/>
      <polygon class="cls-186" points="76.33 92.6 89.16 90.07 85.94 79.64 80.78 56.45 65 47 54 45.01 48.37 75.5 76.33 92.6"/>
      <polygon class="cls-104" points="75.09 73.25 75.09 70 69.22 63.88 70.12 59.79 80.78 56.45 91 64.85 85.94 79.64 75.09 73.25"/>
      <path class="cls-10" d="m82.43,87.58l-6.1-6.72-4.06-8.87,8.51,3.76.47-6.63-1.62-4.48h4.34l-8.88-11.04,8.88,1.67-1.25-3.9s1.47,2.65,2.37-6.37c.9-9.01,4.07-9.31,4.07-9.31l11.84,24.09-1,15.97-17.57,11.82Z"/>
      <polygon class="cls-183" points="40.75 70 45 52 49.58 37.61 52.47 27.82 56 36.9 54 47.64 52.47 59.79 51.01 64.66 51.01 70 55.29 76.96 51.01 85.07 43.86 83.94 40.75 70"/>
      <path class="cls-163" d="m94.5,59.79l-5.34-5.46v-8.84l-4.16-10.27-3.75-5.25,3.75-2.97-1-6s3.33,5.46,5.16,8.73,5.34,12.9,5.34,12.9l3.5,13.37-3.5,3.79Z"/>
      <polygon class="cls-113" points="45 194 49.58 203.1 56 209.55 61.98 209.55 62.51 214.33 75.09 222.45 79 219.1 78.96 209.55 78 189 46.72 183 45 194"/>
      <polygon class="cls-80" points="56 189 54.84 198 46.72 187 56 189"/>
      <polygon class="cls-1" points="41.7 85.07 40.75 70 42.72 72 43.86 82.11 49.58 82.75 49.35 75.76 52.47 77.54 51.01 70 64.39 82.11 67.25 93.49 45.76 97.87 41.7 85.07"/>
      <polygon class="cls-213" points="56 189 58.26 194.65 65.69 194 60.09 203.1 65.69 201 67.25 209.55 65.88 214.33 75.09 203.82 80.78 191 78.96 175.5 65.88 172.54 56 189"/>
      <polygon class="cls-132" points="100 191 93 195.7 90.18 199.74 82.72 206 81.25 203.82 79 203 78.96 209.55 75.09 200.28 72.27 198 76.33 191 74 179.75 96.69 180.9 100 191"/>
      <path class="cls-102" d="m183.31,75.76l13.69-17.76,6.61-15.37,6.39-15.63s-11,9-12,12-7.76,12.38-7.76,12.38l-3.24.62-7.21,13.91,3.52,9.85Z"/>
      <path class="cls-117" d="m183.31,75.76l1.91-15.97,1.78-7.79s-2.65-.04-6.33,4.48-5.54,9.43-5.54,9.43l-11.28-1.97,1.01,11.82h18.45Z"/>
      <path class="cls-153" d="m100,191l-4-6.04-6.84,9.04-4.16-3.45.94-5.6-4.69,3.04-4.92-6.39-5.25,6.39s-2.07-8-5.07-9,17-14,17-14l17.34.67,4.16,19.28-4.5,6.04Z"/>
      <path class="cls-157" d="m124.31,186.25l5.51,2.76s4.16,2.13,6.17,4.06,7.01,6.66,7.01,6.66l4.97,3.37,14.03-9.1-1.57-13.1-14.43-14.09-21.69,19.44Z"/>
      <path class="cls-16" d="m173.68,216.48l-9.83-3.58s-7.85-5.13-9.85-5.01l-2,.12-4.03-4.9,1.55-4.06,4.48-2.15,1-7.9,3-6,21.23,8,12.19,22.61-17.74,2.87Z"/>
      <polygon class="cls-111" points="158 183 158.6 189.73 158 194 163.85 203.82 168.12 203.82 167.06 202.15 177 195.7 172 182 163.85 177.28 158 183"/>
      <path class="cls-62" d="m239.19,107.44l.96-5.31.48-6.14s.37-2,2.37-4l2-2-1.51-7.25-6.45,3.81-3.04,8.44-10.09-3.3,9.09,21.3,6.19-5.56Z"/>
      <path class="cls-81" d="m234.54,107.44l-.72-4.82,5.37-3.05-2.69-9.5-5.51,5.93-3.07-1.19,2.99-5.25s.92-1.4,0-4.48-1.28-3.76-1.28-3.76l3.92-5.81-4.52-6.37-7.04,3.87-5,11-7,12-8.18,10.5,8.24,7.6h19.58l4.9-6.66Z"/>
      <polygon class="cls-68" points="207.67 112.37 223.35 106.73 222.65 110.15 226.06 112.37 235.37 105.5 233.22 126.5 218.9 129.63 207.67 112.37"/>
      <path class="cls-52" d="m42.72,109.24l-1.01-6.61s1.73-6.43,1.01-10.03-1.01-7.52-1.01-7.52l14.33,12.08.97,9.58-14.28,2.51Z"/>
      <polygon class="cls-40" points="122.5 185.01 116.5 185.01 111 185.01 105 188 102.81 183 110 174 119.5 171.5 122.5 185.01"/>
      <path class="cls-122" d="m54.84,97.79l-9.84-2.79,1.24-6.1,6.24-.9,1.53-2.93,8.51,7.52.93-4.6-9.22-12.5-3.2-5.5,2.99-3.01s2-13.99,2-17.99,8.87,16.91,8.87,16.91l4.35,7.23-1.49,9.61,11.22,9.25-13.07,10.63-11.04-4.84Z"/>
      <path class="cls-32" d="m107.85,72v-11.94s-3.35-9.57-5.1-9.31-5.17-1.91-5.17-1.91l-3.08-6.21s1.5,7.69,0,10.03,2.19,10.34,2.19,10.34c0,0-1.69,10.73-3.69,13.37s14.85-4.37,14.85-4.37Z"/>
      <path class="cls-151" d="m236.33,143.56s-2.97-8.72-2.15-12.64,5.01-13.27,5.01-13.27v-10.91l-3.82-1.23-2.87,2.61v9.53s-4.81,6.41-9.16,6.88c-4.35.47,12.98,19.03,12.98,19.03Z"/>
      <polygon class="cls-227" points="213.8 117.65 228.69 130.92 239.67 144.95 239.67 153 242.06 158 233.7 164 213.8 143.56 213.8 117.65"/>
      <polygon class="cls-42" points="216 143.56 230.12 152.09 230.12 157.28 227.01 165.67 211.97 163 195.73 149 216 143.56"/>
      <path class="cls-218" d="m168.12,73.79s5.15-1.79,7.02-1.79,8.18,3.76,8.18,3.76l4.9,10.79,4.65,6.94s7.36,10.97,10.75,13.24,11.56,12.46,11.56,12.46l3.72,17.81-14.25,4-16.43-9.15-20.1-58.06Z"/>
      <path class="cls-92" d="m173.1,82.75s8,3.04,10.45,6.15,11.94,21.25,11.94,21.25l.24,4.85-7.73,4-10.18,2.53-13.97-28.21,9.25-10.57Z"/>
      <polygon class="cls-69" points="177.82 191 178 207 187 213 173.68 216.48 189 225 201 223 217.46 211 209 199 179.23 187 177.82 191"/>
      <polygon class="cls-76" points="160.43 180.9 169.94 183 168.12 191 175.13 201 179.23 194 180.67 189.49 193.92 195.72 191.42 178.97 169.64 171.5 160.43 180.9"/>
      <polygon class="cls-226" points="208.15 157 228.21 161 224.15 155.5 233.7 157.28 238.96 164.86 238 168 233.94 168 237.52 177.28 242.06 185.91 233.22 191 234.42 197 233 210 225.1 210 222.35 216.48 204.64 207.16 208.15 157"/>
      <polygon class="cls-144" points="199.31 149 213.64 157 216 161 220.09 165.67 216 171.5 214.12 174 221.28 183 214.67 194 217.22 201 210.3 205.73 210.3 209.07 201 211 195.49 207.88 204 205 201 201 194.06 157 188 146.75 188 143.56 199.31 149"/>
      <path class="cls-194" d="m181.58,139.28l14.87,14.85s.04,6.21,4.3,11.54,11.25,13.33,11.25,13.33l-8.39,1.66,1.19,5.25,9.19,7.09,2,3-15,2v3l-9.58-5.78-2.71-35.1-14.44-3.12-13.84-10.49,21.15-7.23Z"/>
      <polygon class="cls-108" points="191.43 191 203.61 191 201 181 194.06 170.75 185.22 164 179.23 168 180.67 177.5 189 181 191.43 191"/>
      <polygon class="cls-3" points="167.06 150 179.23 155.5 188 153 189 163 195.49 170.75 195.49 174 185 169 181.58 172.54 193 180 195 198 186 192 186.18 183 169.94 174 167.06 150"/>
      <path class="cls-63" d="m43.86,111.76c-1.86,7.24-8.13,14.24-8.13,14.24l4.54,7.78,22.24-14.58,18.27-28.23h-6.78l-8.12,9.87-8.88-5.91-5.99.98,2.99,4.93v3.16l-7.52,5.24"/>
      <polygon class="cls-67" points="40.27 147.5 31.43 149.42 31.43 157 33.58 161 37 170 35.73 175.5 45 194 54 178 40.27 147.5"/>
      <polygon class="cls-125" points="62.51 117.65 57 121.53 48.63 117.65 49.58 124.54 36.93 129.67 35.73 138.17 66.17 141 69.22 138 62.51 117.65"/>
      <path class="cls-112" d="m50,174l-8.54-2.5,4.27-10.5-6.9-.88s5.13-5.94,2.15-8.03-8.6-4.59-8.6-4.59l-4.3-3.94,7.64-5.39h21.27l11-1.17,3.07,10.5-21.07,26.5Z"/>
      <polygon class="cls-173" points="127 92 135.01 73.79 131.79 65.91 122.5 64.66 119 65.91 110 65.91 127 92"/>
      <polygon class="cls-162" points="124.09 85.07 126.24 72 124.09 70 122.5 70 121.07 78.5 124.09 85.07"/>
      <polygon class="cls-96" points="133.04 73.79 131.79 65.91 138 68 147 63 152 64 158.6 63 163.85 63.94 169.22 76.84 155.61 82.75 135 88 133.04 73.79"/>
      <path class="cls-178" d="m111,68l-5.5,1.13s1.5,3.45-4.5,4.66-10,3.58-10,3.58c0,0,.9,3.12-2.55,5.37s-6.02,4.84-6.02,4.84l2.57,5.01,30-3.7v-15.1l-4-5.79Z"/>
      <path class="cls-205" d="m74,133l-6,4-7.91-10.5v-9.54l-9.08-5.19s7.73-2.29,12.36-5.03,9.13-2.73,9.13-2.73l1.49,29Z"/>
      <path class="cls-23" d="m70,102c9.22-9.63,13-14,17-15s7.5,0,7.5,0l11.5,19.73-5.52,9.59-24.15,13.35-7.58-.04v-6.13l-1.97-.11-.9-7.76"/>
      <polygon class="cls-223" points="169.22 155.28 173.1 149 177.82 147.5 173.68 143.56 160.43 144.95 169.22 155.28"/>
      <polygon class="cls-29" points="115 97.67 124.31 89.55 119.65 82.11 120.31 75.76 119 70 115 65.91 110 65.91 107.85 68.6 113 78.5 113.88 82.75 109 88 115 97.67"/>
      <path class="cls-17" d="m102.08,121.53l-20.08-.43-5,3.9-3.96,1.5.96,5.35s-3.82,3.87-9.91,5.01-7.09,1.31-7.09,1.31c0,0,7.52.17,13.26,0s32.88-3.23,32.88-3.23l2.37-6.12-3.42-7.29Z"/>
      <polygon class="cls-86" points="135.37 88.9 139 94.93 129 125.33 110.84 130.92 107.37 126 103.13 117.65 104.5 110.15 111.37 107.44 115 101.73 135.37 88.9"/>
      <polygon class="cls-49" points="102 100.84 96 105.13 94.5 108.36 96.69 117.65 110 113 111 105 102 100.84"/>
      <polygon class="cls-37" points="144 71 139.67 73.79 137.5 77.37 140.5 85.07 147 87 149.52 73.79 146.84 70 144 71"/>
      <polygon class="cls-216" points="165.1 99.57 170.12 87 181.58 87 177 80.6 170.66 75.76 171.55 73.79 169.22 72 165.1 66.27 165.1 72.72 162.93 73.79 158.21 75.76 153.1 72 155 68 153.1 64.66 152 65 153 69 148.14 78.5 165.1 99.57"/>
      <path class="cls-171" d="m128.16,88.23v-15.33l3.84-2.9s3,2.36,4.5,2.18-1.5,11.82-1.5,11.82l-4.39,26.15-6.52-6.88,4.07-15.04Z"/>
      <path class="cls-39" d="m160.43,93.49c-.43-.49,6.63,0,6.63,0l2.17,4.3h6.63l1.15,4.3-1.87,2.87,4.1,3.58-2.23,4.66,3,6.81,6.78-5c2.22-4-2.78-14.73,1.22-9.87s7.46,5.87,7.73,9.87c.27,4-4.07,6-3.4,11,.67,5,7.16,5.85,7.16,5.85l10.75,3.09s6.76-2.94,4.76-7.94-4.94-12.9-4.94-12.9c0,0,10.84,8.73,10.39,16.81s4.47,9.98.01,14.03-11.12,4.05-11.12,4.05c0,0-9.34,2-9.34,3s-10.9-6.88-16.45-8.44-9.13,1.39-9.13,1.39c0,0-3.7,2.7-8.56,1.88-4.86-.83-23.36-15.33-23.36-15.33v-4.5l3.5-12s-7-8-7-9v-9.46s6-1.54,8-4.54,13.43,1.49,13.43,1.49Z"/>
      <path class="cls-222" d="m110,178.57l4-1.57,4-3.27v4.84l2.51,4.43,1.49,2,6,3s2.01-3.99,2.51-7-.69-7.99-.69-7.99l-11.82-7.34-8,1.97v10.93Z"/>
      <path class="cls-189" d="m162.93,160.12h12.21s-.67-4.51-3.4-7.32c-2.73-2.8-8.51-8.66-8.12-8.23s-.69-4.33-.69-4.33l-4.33-3.38s-1.09,2.47-3.34,1.31-11.46-11.17-11.46-11.17l-2.51,8.72,21.64,24.4Z"/>
      <path class="cls-139" d="m158.48,126s3.52-10,7.52-10,7.68-1,7.68-1l6.32,2,8,2-.87,3.61-5.13,1.39v3h-5s3.47.63,2.23,1.82,0,9.18,0,9.18l-21.02-6.15.27-5.85Z"/>
      <polygon class="cls-199" points="173.68 115 173.1 109.24 177 106.73 176.21 100.84 170.66 97.79 167.06 99.57 162.24 96 154 101 160.43 107.44 165.5 107.44 169.22 112.66 173.68 115"/>
      <polygon class="cls-45" points="138.96 97.79 133.04 90.07 139 81.31 143 85 147.97 83.28 147 96 138.96 97.79"/>
      <polygon class="cls-36" points="160.43 93.49 162.93 85.43 165.82 78.5 155.61 73.79 153 72 147.97 79.16 148.44 87 160.43 93.49"/>
      <path class="cls-31" d="m127,110v-10.37l-4.5-7.93-12.5,3.3-4,7,3.76,8,8.24,1.76s3-2.27,1-5.01-2.5-5.01-2.5-5.01l2.5-2.1s2.75,7.26,4.37,7.81,3.63,3.42,3.63,3.42v-.87Z"/>
      <path class="cls-126" d="m126,104s-3-.33-3.5-3.16-3.5-8.24-3.5-8.24l-1-8.6v-8.24l4.5-1.97s5.14,15.46,7.32,16.84-.82,6.81-.82,6.81l-3,6.57Z"/>
      <path class="cls-30" d="m98,123.39s-12.42-3.33-14.21-1.86-.79-2.53-.79-2.53l2.94-4h10.06l6.81,7.32-4.81,1.07Z"/>
      <path class="cls-149" d="m137.5,77.37s-2.5,9.66,0,11.64,3.07,5.49,3.79,8.24,0,7.7,0,7.7c0,0,4.71-3.28,4.71-4.12s1-4.84,1-4.84c0,0-4,0-3-3s1-9,1-9l-2-5,4-3.24,3.5,8.42,4.5,1.82,7,4.36,5.06,1.34v2.87l-10.55,8.4-19.01,20.54-7.68-1.18,2.18-14.32,3-5s3-6.15,1.5-8.07-3.46-3.22-3.46-3.22l-.04-10.7,4.5-3.63Z"/>
      <path class="cls-90" d="m119,170s-4-3-4,0-2.37,5.5-2.37,5.5l-2.63,4.5v3l-4.5,1.48-.5,3.52-5,3s-2-5.7,0-8.85,0-5.15,0-5.15c0,0-1.55-2-2.78-1.5s-.15-2.09,1.32-5.8,5.46-8.7,5.46-8.7l12,2,3,7Z"/>
      <polygon class="cls-2" points="99 115 101 111.76 107.37 110.15 110 113 104.5 121.1 99 115"/>
      <path class="cls-206" d="m122.5,170.3s3.5,2.48,6.5,8.09,6,8.61,6,8.61l5-2,5-7s-3-3.9,0-4.45,5.5-4.48,5.5-4.48l-22.5-5.07-5.5,6.3Z"/>
      <path class="cls-66" d="m74,133s3,1.56,5,.78,4.25-4.15,4.25-4.15l9.75,7.23,6.58-5.01,1.42,3.87-8,4.52-12-.24s-4.25.72-5.63-3.14l-1.37-3.86Z"/>
      <path class="cls-156" d="m94.5,138.15s4.86-6.95,8.18-9.05,8.32-5.1,15.32-6.1,15,0,18,2,9,6,12,10,3.12,5,6.06,6,7.94,10,7.94,10l13,18,2,3-9,9-10,2-12.9-11.5-11.1-1.5s-2-2-6-1-20.63-2.55-20.63-2.55c0,0-7.37-.45-8.37,2.55s-11.21,2.5-11.21,2.5l-5.79-.5-13,8s-3-11-7-14-2-5-2-5l-3-1,14-22,5,1s1,2,10,2,8.5-1.85,8.5-1.85Z"/>
      <path class="cls-229" d="m96,119.64s3,.36,5,3.86,3.75,6.13,3.75,6.13l7.88-3.63s-.03-2.8-2.33-4.9-6.03-3.81-7.16-3.45-4.13-2.65-4.13-2.65h-6l3.69,2.65-.69,2Z"/>
      <path class="cls-78" d="m147.97,131.85s2.03-3.85,5.03-4.85,5.48-1,5.48-1c0,0-.63-1.37,4.45-3.68s6.3-1.22,6.3-1.22l-5.37,3.92-3.42,4.62s.97,2.06,1.77,2.22,1.65,5.04,1.65,5.04c0,0-5.85.11-5.85,2.11s-1,2-1,2c0,0-.21-2.06-4-3-3.79-.94-5.03-6.15-5.03-6.15Z"/>
      <path class="cls-193" d="m93.6,135.72s-9.15,28.89-10.88,31.09,4.78,4.69,4.78,4.69l3.5,1.04,1.77-3.34s4.23-7.96,8.23-9.07,4.5-9.55,4.5-9.55l-11.9-14.85Z"/>
      <path class="cls-155" d="m124.09,122.61s1.91.39,2.91-3.61c.34-1.34.56-2.46.71-3.35.29-1.77.29-2.65.29-2.65l2-7,3-4v10.31l-2,5.69,5-3-2.78,6.1,1.79,1.51s7.28-5.98,9.13-10.3c1.85-4.31,6.35-7.89,6.35-7.89l4.5-3.42,3.48-1.43-5.48,9.43-2.5,5.27s3.5-2.27,5.5-.27,1,6,1,6l1.48,2.62-3.22.88-3.94,2.5s.37-3-1.97,2-1.61,7.72-1.61,7.72l-23.64-13.11Z"/>
      <path class="cls-145" d="m74,135.72l-7.46,3.56s-1.06,6.57-4.3,10.14,4.03,6.58-3.1,11.58c-7.13,5-11.46,10.5-11.46,10.5,0,0-4.67.5-3.67,8.5s1,14,1,14l6-5h5l10-10-4-9,9.55-16.57,2.45-1.34v-4.59l2.33-2.73-2.33-9.05Z"/>
      <path class="cls-19" d="m95.91,147.5l-1.41-3s1-6,2-8,4-6,7-8,8-5,15-5,13,1,13,1c0,0,7,3,10,6s4,4,6,8,3,7,3,9v5.1s-1,3.9-3,4.9-8,7-8,7c0,0-1.55-1-2.28,0s-2.72,3-2.72,3c0,0-5-1-5,0s-5,2-5,2l-5,2-3-2s2-2-1-2-6-2-6-2c0,0-2-1-3-1s-4-2-4-3-1-3-1-3v-5"/>
      <path class="cls-204" d="m97,153l-1-5s0-4,3-6,5-5,5-5c0,0,4-2,6-1s5,2,5,5,0,5-1,7-2.48,3-4,4-5.13,0-5.13,0l-2.15.44s-.15-.56-1.43,0-2.28,1.56-4.28.56Z"/>
      <polygon class="cls-4" points="68.75 117.65 81.25 113.55 81.25 110.15 81.25 107.44 89.16 107.44 82.72 104 87.5 99.99 85 95.82 78.96 100.84 74 103.16 75.55 109.24 74 111.76 69.64 111.76 68.75 117.65"/>
      <path class="cls-204" d="m145,157s-3-1-5-1-3.66,1-4.33,1-4.67-3-5.67-4-1-4-1-4c0,0,0-5,1-6s3-2,5-2,5.08,1.08,6,2c1,1,2,3,0,5-1.41,1.41,2,2,2,3s-1,3,1,3,2,2,2,2l-1,1Z"/>
      <path class="cls-196" d="m111,94.74s2.25-4.74,1.63-7.74-4.78-8.5-4.78-8.5l-8.85,4.96-12.88,5.43-2.69,4.6-1,8.24,18.57.9,10-7.89Z"/>
      <path class="cls-89" d="m157,137l4-4s2.52-2.74,4.76-3.37,6.24-1.63,8.24.37,3,2.61,3,4.81,1,5.19,2,5.19-1.46-1-2.73,1-1.9,3.15-3.58,3.57-8.46.57-9.07,0-2.64-2.57-2.63-3.57-1.07-2.83-1.07-2.83l-1.91.83-1-2Z"/>
      <path class="cls-195" d="m169.1,144.57c-.1.43,1.9.43,3.9-2.57s-1.03-6.28-1.03-6.28c0,0-3.97-2.72-5.97-1.72l-4,2s-1.99,2.55-1.49,3.28.49,2.72,1.49,3.72,7.1,1.57,7.1,1.57Z"/>
      <path class="cls-89" d="m79,133s1-4,3-5,1,0,2-2,2-3,4-4,4-1.13,6.5-.57,3.5,1.57,4.5,3.57,4,4,4,4l-4.66,4.64-4.34,3.36s-1,1.82-3.5.91-4.89-1.47-5.69-2.19-1.81-1.72-1.81-2.72-1-2-1-2l-3,2Z"/>
      <path class="cls-224" d="m115,97.67s0-3.67-2-4.67-3,1-3,1l-4.5-2.3-3.5,1.79-4-.49-.66,1.69,4.66,5.31-5-2-3-4-3.5-.03-3.5-1.97,2,4-1,2-1,3.97,12,5.03s1.67,1,3.84,0,.16-3,.16-3h4s3-1,4-2,2.6-2.85,3.3-2.43.7-1.9.7-1.9Z"/>
      <path class="cls-12" d="m86.36,135.72s-1.36-.72-1.36-2.72.68-3.33.68-3.33l1.32-2.87s-.9,4.72.55,4.46,2.45.74,3.45.74,3-.75,3.5-1.37,0-1.81,0-1.81l1.5-.46,2,2.64s-1,3-3,4-3.07,1.77-5.54,1.88-3.1-1.16-3.1-1.16Z"/>
      <path class="cls-123" d="m95,126c-1,0-2,1-2,1l1.5,1,1.5-1-1-1Z"/>
      <polygon class="cls-123" points="162 138 163.37 138 163.85 135.72 162 136.86 162 138"/>
      <path class="cls-61" d="m81.25,29.97l-2.29-2.15v-4.06l-3.86-2.76-2.83-4.88V5.85s5.3,3.96,8.51,9.55l3.22,5.6,3,6.82-5.75,2.15Z"/>
      <path class="cls-116" d="m132,233h2l3-1,2-5,2-6v-2h-2l-1,1-3,3-1,3s1-1-1,1l-2,2-.37,1.51.37,1.49-.1,1h1.1Z"/>
      <polygon class="cls-53" points="120.27 233.5 115.58 233.5 114.82 233.5 114.82 232 115 231 117.54 231.27 119 231.27 120.27 232 120.27 233.5"/>
      <path class="cls-220" d="m130.9,233l-2.9,1h-3.69l-4.04-.5-1.27-3.5h2.46c.54,0,2.54,1,2.54,1l.63,1s1.37-2,2.37-2h2s1.25-.15,1.63.93.27,2.07.27,2.07Z"/>
      <polygon class="cls-191" points="113.84 233 109.67 233 109 232 109 231 110 230 114 231 114.15 231.55 113.84 233"/>
      <path class="cls-166" d="m135,136l-6,1s2-2-2-4-13,0-14,1c-.71.71,2-3,2-3l4-4s3-1,7,1,7.76,3.88,7.76,3.88h2.27s.97,3.12-1.03,4.12Z"/>
      <path class="cls-215" d="m113,150l-2.76,5.52-.24.48s-7,2-8,1-1-4-1-4l1-1s4,.84,5,.42,5-1.42,6-2.42Z"/>
      <path class="cls-47" d="m143,158l-2-2s-2.25,1-5.63,0-4.37-2-4.37-2l-2-1s-.28,3,1.36,5,2.64,3,4.64,4,4,1,4,1l1.66-5h2.34Z"/>
      <path class="cls-224" d="m92,142s-.18.3-.49.79c-1.28,2.02-4.83,7.21-7.36,7.21-3.15,0-4.15-5-4.15-5,0,0,1-5-2-7s-4-4-4-4l-5,4-2.04,4.5,5.04-2.5,2,2s1,2,0,4-2,6-2,6v10s-13.81,4.5-13.81,4.5l7.81,12.5s15-9,17-14,9-23,9-23Z"/>
      <polygon class="cls-143" points="117 236 110 235 109 234 112.88 234 117 234 117 236"/>
      <path class="cls-115" d="m31,469v4.91s6,2.09,6,3.09-4,5-4,5l-9,4s4,0,2,3-3,3-3,3l1,1s4-1,7-2,11-5,11-5l6-4,6-7s-1-2-2-2-6,1-6,1l-5,1-10-6Z"/>
      <path class="cls-130" d="m1,491s4-2,7-2,6-2,8-4,2-1,2-1l-4.24,7s1.03,0-2.87,0h-3.9l-1-1-5,1Z"/>
      <path class="cls-221" d="m17.22,469s-1.22,0,1.78,2,5,6,5,6l-2,6-4,1-3.4,3.38h-2.27s-.33-4.38-.33-5.38,3-6,3-6l1-3-5-2,6-4,.22,2Z"/>
    </g>
  </g>
</svg>